<svg width="160" height="65" viewBox="0 0 160 65" fill="none" xmlns="http://www.w3.org/2000/svg">
<path d="M14.5124 27.3769C46.954 3.91011 92.5079 -0.316653 122.975 3.13988C136.735 4.7009 149.454 8.17766 154.197 15.6636C158.276 22.0978 155.454 32.0552 144.732 40.7575C131.22 51.726 109.263 56.4843 91.9336 59.2623C75.2048 61.944 59.1546 62.709 44.9915 61.5957C31.061 60.501 17.6129 57.7831 9.64642 52.1675C1.18204 46.2006 0.215215 35.0297 15.733 24.4776C31.0486 14.0645 53.3511 9.70414 70.8215 7.21699C90.6104 4.4005 109.297 3.6058 126.522 4.55305C128.44 4.65894 130.252 2.59654 128.338 2.49329C109.44 1.46179 88.8125 2.51847 66.9913 5.91261C50.137 8.53321 29.4622 13.2849 14.6133 22.9232C1.11261 31.6861 -2.50565 41.8928 1.59601 48.8117C6.75474 57.5198 22.5942 61.4594 38.3612 63.2041C54.1079 64.9479 72.3195 64.2597 91.4542 61.2022C109.138 58.3757 131.095 53.4513 145.562 42.6483C156.801 34.2542 160.987 24.5562 158.989 17.4493C156.471 8.4854 143.937 3.82932 129.792 1.7165C98.0478 -3.02599 47.4913 1.08234 12.4415 26.4671C10.7446 27.6957 12.7982 28.6173 14.5124 27.3769Z" fill="#FEA36F"/>
</svg>
