<svg width="22" height="22" viewBox="0 0 22 22" fill="none" xmlns="http://www.w3.org/2000/svg">
<path d="M4.80391 2.67264C7.31328 4.55037 10.0117 8.366 11 10.4156C11.9883 8.37029 14.6867 4.55467 17.1961 2.67264C19.0051 1.31482 21.9355 0.266386 21.9355 3.60935C21.9355 4.27537 21.5531 9.21678 21.3297 10.0203C20.5477 12.8047 17.7031 13.5179 15.1723 13.084C19.5938 13.8359 20.7195 16.3281 18.2875 18.8203C13.6727 23.5555 11.6574 17.6344 11.1418 16.1176C11.0687 15.907 11.0301 15.7824 11 15.7824C10.9699 15.7824 10.9312 15.9113 10.8582 16.1176C10.3426 17.6344 8.32305 23.5555 3.7125 18.8203C1.28477 16.3281 2.40625 13.8359 6.82773 13.084C4.29687 13.5179 1.45234 12.8047 0.674609 10.016C0.446875 9.21248 0.0644531 4.27107 0.0644531 3.60506C0.0644531 0.262089 2.99492 1.31053 4.80391 2.66834V2.67264Z" fill="white"/>
</svg>
